<?xml version="1.0" encoding="utf-8"?>
<!-- Generator: Adobe Illustrator 22.1.0, SVG Export Plug-In . SVG Version: 6.00 Build 0)  -->
<svg version="1.1" id="レイヤー_1" xmlns="http://www.w3.org/2000/svg" xmlns:xlink="http://www.w3.org/1999/xlink" x="0px"
	 y="0px" viewBox="0 0 240 240" style="enable-background:new 0 0 240 240;" xml:space="preserve">
<style type="text/css">
	.st0{fill:#000000;}
</style>
<g>
	<g>
		<path class="st0" d="M190.7,41.1c-17.6-16-37.6-24.1-59.2-24.1c-15.3,0-32.3,4.8-50.4,14.4C63,40.9,48,54.4,36.7,71.2
			c-11.3,16.9-17.2,35.8-17.2,56.4c0,14.5,4.3,28.8,12.7,42.6c5.7,9.2,12.6,17.1,21.1,23.7c0,0,52.9,0,52.9,2.9
			c0.1,3.8-60.9,7.4-60.9,8.7c0,0.7,38.1,0.1,38.1,3c0,1.9-8.3,1.4-8.3,3.5c0,3.1,19.8,3.6,57.1,3.6c34,0,35.7-5.2,26.6-5.8
			c-8.8-0.7-17.2-1.6-17.2-4c0-2.5,6.5-3,10.2-3.3c4.6-0.3,12.4-0.6,12.4-1.3c0-1.1-6.1-0.8-6.1-1.7c0-1.2,5.2-0.5,11.7-5.4
			c5.2-3.9,10.2-8.5,15-13.7c21.7-22.8,32.6-49.6,32.6-79.7C217.4,77,208.5,57,190.7,41.1z M0,0v240h240V0H0z M165.9,235
			c-18.4,0-20.2-1.7-20.2-3.3c-0.1-1.8,5.2-2.3,10.2-2.4c9.1-0.1,14.4-2.8,20.8-2.8c5.6,0,7.4,1.2,7.4,3.2
			C184,232.5,178.7,235,165.9,235z M220.5,199.6c0,3.9-25.1,6.4-57.1,6.4c-1.8,0-2.5,1,0.1,1.2c3.5,0.4,24.2,3.6,24,9.1
			c-0.2,5.4-25.2,7.7-44.8,7.7c-38.3,0-80.2-6.6-80.2-10.1c0-1.9,7.3-1,7.3-2.9c0-2.7-41.4-2.2-41.4-5.2c0-1.4,11-2.6,19.5-3.5
			c11.6-1.1,39.8-4.2,39.8-5.2c0-1.6-35.8-2-43-2c0,0-4.2-3.7-5.3-4.9C16.6,166.4,5,136.4,5,101.3C5,74,15,50.8,34.6,32.6
			C54.4,14.3,80,5,110.9,5c25.9,0,48.5,6.1,67.4,18.3s33.3,28.1,42.6,47.3C230.2,90,235,109,235,127.3c0,25.5-8.7,47.8-25.9,66.5
			C209.1,193.8,220.5,197.2,220.5,199.6z"/>
	</g>
</g>
</svg>
