<?xml version="1.0" encoding="utf-8"?>
<!-- Generator: Adobe Illustrator 22.1.0, SVG Export Plug-In . SVG Version: 6.00 Build 0)  -->
<svg version="1.1" id="レイヤー_1" xmlns="http://www.w3.org/2000/svg" xmlns:xlink="http://www.w3.org/1999/xlink" x="0px"
	 y="0px" viewBox="0 0 220 37" style="enable-background:new 0 0 220 37;" xml:space="preserve">
<style type="text/css">
	.st0{fill:#DEDCCA;}
</style>
<path class="st0" d="M211.2,29.5c-0.8-0.4-1.8-1.2-3.2-2.2l0,0h0c0,0,0,0,0,0c0,0,0,0-0.1,0c0,0,0,0,0,0l-10.5-8.1l10.6-7.9
	c1-0.8,2.1-1.2,3.2-1.2l0,0V9.7h-4.5V10h0.1c0.7,0,0.8,0.1,0.8,0.2c0,0.1-0.1,0.3-0.3,0.4L195,19.8v-7.8c0-0.9,0.1-1.5,0.4-1.7
	c0.2-0.2,0.7-0.3,1.3-0.3l0.1,0V9.7h-6V10l0.1,0c0.8,0,1.2,0.1,1.4,0.3c0.2,0.3,0.3,0.9,0.3,1.8v16c0,0.9-0.1,1.5-0.3,1.7
	c-0.2,0.3-0.7,0.4-1.4,0.3l-0.1,0v0.3h5.9v-0.3l-0.1,0c-0.5,0-0.8,0-1-0.1c-0.2-0.1-0.4-0.2-0.5-0.4c-0.1-0.2-0.2-0.7-0.2-1.6v-7.6
	l11.5,8.8c0.7,0.5,0.7,0.7,0.7,0.7c0,0,0,0.2-0.9,0.2h-0.1v0.3h7.1v-0.3h-0.1C212.7,30.1,211.9,29.9,211.2,29.5z M51.8,20.6
	c-0.7-1-1.8-1.6-3.2-1.8c1.6-1,2.5-2.4,2.5-4.1c0-0.9-0.2-1.7-0.6-2.4c-0.4-0.7-0.9-1.2-1.5-1.6c-0.6-0.4-1.2-0.6-1.9-0.8
	c-0.7-0.1-1.8-0.2-3.3-0.2h-5.4V10h0.1c0.4,0,0.7,0.1,0.9,0.2c0.2,0.1,0.3,0.3,0.4,0.6c0,0.3,0.1,0.8,0.1,1.5v15.6
	c0,1-0.1,1.7-0.3,1.9c-0.2,0.2-0.6,0.4-1.2,0.4h-0.1v0.3h8c1.5,0,2.7-0.2,3.5-0.5c0.8-0.4,1.6-1.1,2.2-2.1c0.6-1.1,1-2.3,1-3.6
	C52.9,22.8,52.6,21.6,51.8,20.6z M42.2,10.2h0.5c1.6,0,2.8,0.2,3.6,0.5c0.8,0.3,1.4,0.9,1.8,1.6c0.4,0.7,0.6,1.6,0.6,2.6
	c0,1-0.3,1.9-0.8,2.9c-0.5,1-1.7,1.4-3.3,1.4h-2.4V10.2z M49.6,28.7c-0.6,0.7-1.8,1.1-3.3,1.1c-1,0-1.8-0.1-2.4-0.3
	c-0.5-0.2-0.9-0.4-1.2-0.7c-0.2-0.3-0.4-0.6-0.5-0.8c-0.1-0.3-0.1-0.9-0.1-1.8v-6.5h1.5c1.9,0,3.3,0.1,4,0.3c0.7,0.2,1.4,0.8,2,1.7
	c0.6,0.9,0.9,2.2,0.9,3.7C50.6,26.9,50.3,28,49.6,28.7z M183.4,10L183.4,10c0.7,0,1.1,0.1,1.3,0.4c0.2,0.3,0.3,0.9,0.3,1.9V28
	c0,0.9-0.1,1.5-0.2,1.8c-0.2,0.3-0.6,0.4-1.2,0.4h-0.1v0.3h5.6v-0.3h-0.1c-0.5,0-0.8-0.1-1-0.2c-0.2-0.1-0.3-0.3-0.4-0.5
	c-0.1-0.2-0.1-0.7-0.1-1.6V12.1c0-0.8,0-1.3,0.1-1.5c0.1-0.2,0.2-0.4,0.6-0.5c0.3-0.1,0.6-0.2,0.9-0.1l0.1,0V9.7h-5.6V10z M30,30.5
	c0,0,0.7-0.6,0.8-0.8c3.6-3.9,5.4-8.7,5.4-14.3c0-4.4-1.6-8.1-4.7-11.1c-3.1-2.9-7.2-4.4-12-4.4c-4.1,0-7.7,1-10.6,2.9
	c-3,2-5.2,4.5-6.7,7.6C0.8,13.5,0,16.6,0,19.5c0,4.1,1.4,7.7,4.1,10.7c0,0-1.8,0.6-1.8,0.9c0,0.6,4,1,9,1c0.3,0,0.4,0.2,0,0.2
	c-0.5,0.1-3.8,0.6-3.8,1.5c0,0.9,4,1.2,7.1,1.2c6.1,0,12.7-1.1,12.7-1.6c0-0.3-1.2-0.2-1.2-0.5c0-0.4,6.5-0.4,6.5-0.8
	c0-0.2-1.7-0.4-3.1-0.6c-1.8-0.2-6.3-0.7-6.3-0.8C23.3,30.5,28.9,30.5,30,30.5z M29.9,32.1c0,0.1-6,0-6,0.5c0,0.3,1.3,0.2,1.3,0.6
	c0,0.5-3.1,0.6-9,0.6c-5.4,0-5.6-0.8-4.2-0.9c1.4-0.1,2.7-0.3,2.7-0.7c0-0.4-1-0.5-1.6-0.5c-0.7-0.1-2-0.1-2-0.2c0-0.2,1-0.1,1-0.3
	c0-0.2-0.8-0.1-1.8-0.9c-0.8-0.6-1.6-1.4-2.4-2.2c-3.4-3.7-5.1-8-5.1-12.8c0-3.8,1.4-7,4.2-9.6c2.8-2.6,5.9-3.8,9.4-3.8
	c2.4,0,5.1,0.8,8,2.3c2.9,1.5,5.2,3.7,7,6.4c1.8,2.7,2.7,5.8,2.7,9.1c0,2.3-0.7,4.6-2,6.9c-0.9,1.5-2,2.7-3.3,3.8c0,0-8.3,0-8.3,0.5
	C20.3,31.3,29.9,31.9,29.9,32.1z M12.5,35.9c-1.4,0-2.3-0.4-3.3-0.4c-0.9,0-1.2,0.2-1.2,0.5c0,0.4,0.8,0.9,2.9,0.9
	c2.9,0,3.2-0.3,3.2-0.5C14.1,36,13.3,35.9,12.5,35.9z M218.5,10.6c0.1-0.2,0.2-0.4,0.6-0.5c0.3-0.1,0.6-0.2,0.9-0.1l0.1,0V9.7h-5.6
	V10l0.1,0c0.6,0,1,0.1,1.2,0.4c0.2,0.3,0.3,0.9,0.3,1.9V28c0,0.9-0.1,1.5-0.2,1.8c-0.2,0.3-0.6,0.4-1.2,0.4h-0.1v0.3h5.6v-0.3h-0.1
	c-0.5,0-0.8-0.1-1-0.2c-0.2-0.1-0.3-0.3-0.4-0.5c-0.1-0.2-0.1-0.7-0.1-1.6V12.1C218.4,11.3,218.5,10.8,218.5,10.6z M125.8,29.8
	c-0.2-0.2-0.3-0.7-0.3-1.5v-9.5l5-7.7c0.3-0.5,0.6-0.8,0.8-1c0.2-0.2,0.6-0.2,0.9-0.3l0,0V9.7h-3.2V10h0.1c0.4,0,0.5,0.1,0.5,0.4
	c0,0,0,0.2-0.1,0.4c-0.1,0.2-0.2,0.3-0.3,0.4l-4.5,6.9l-4.1-6.8c-0.2-0.4-0.3-0.6-0.3-0.8c0-0.3,0.2-0.5,0.6-0.5h0.1V9.7h-4.9V10
	l0.1,0c0.6,0,1.2,0.4,1.7,1.3l5,8.4v8.7l0,0.6c0,0.9-0.5,1.3-1.5,1.2l-0.1,0v0.3h5.6v-0.3H127C126.4,30.1,126,30,125.8,29.8z
	 M158.3,19.3c-0.8-0.4-2.2-0.9-4.3-1.6c-1.2-0.5-2-1-2.4-1.6c-0.4-0.6-0.6-1.2-0.6-2c0-1.1,0.4-2.1,1.2-2.9c0.8-0.8,1.9-1.2,3.3-1.2
	c0.8,0,1.6,0.1,2.2,0.4c0.7,0.3,1.2,0.7,1.8,1.2c0.6,0.6,0.7,0.8,0.8,0.8v0l0.3,0l-1-2.7h0c0,0-0.1,0-0.1,0
	c-0.1-0.1-0.5-0.2-1.3-0.3c-0.8-0.2-1.6-0.2-2.2-0.2c-1.8,0-3.2,0.6-4.3,1.6c-1.1,1.1-1.7,2.5-1.7,4.1c0,0.9,0.2,1.7,0.6,2.6
	c0.4,0.8,1,1.5,1.6,1.9c0.6,0.4,1.8,0.9,3.3,1.5c1.6,0.5,2.6,1,3.2,1.4c0.6,0.4,1,0.8,1.3,1.3c0.3,0.5,0.5,1.1,0.5,1.8
	c0,1.2-0.5,2.2-1.3,3c-0.9,0.8-2.2,1.2-3.9,1.2c-1.9,0-3.3-0.4-4.2-1.2c-0.9-0.8-1.4-2.2-1.4-4.1l0-0.1h-0.3v6.1h5.5
	c0.3,0,0.9-0.1,1.8-0.2c0.9-0.1,1.6-0.3,2-0.5c0.4-0.2,0.8-0.5,1.2-0.9c0.4-0.4,0.8-0.8,1-1.3c0.3-0.5,0.5-1,0.6-1.5
	c0.1-0.5,0.2-1.1,0.2-1.6c0-1.4-0.4-2.5-1.1-3.3C159.8,20.3,159.1,19.7,158.3,19.3z M146.5,29c-0.5-1-0.6-1.3-0.6-1.3l-7.3-18.3l0,0
	h-0.4l-7.4,19c-0.3,0.8-0.6,1.3-0.9,1.5c-0.3,0.2-0.6,0.3-1,0.3h0v0.3h3.1v-0.3h-0.1c-0.4,0-0.6-0.1-0.6-0.4c0-0.1,0.1-0.3,0.3-1
	l3.1-7.8h5.9l2.9,7.3l0,0h0c0,0,0,0,0,0.1c0,0.1,0.1,0.2,0.1,0.2c0.2,0.5,0.3,0.9,0.3,1.1c0,0.3-0.2,0.5-0.6,0.5h-0.1v0.3h4.9v-0.3
	h-0.1C147.4,30.1,146.9,29.8,146.5,29z M134.9,20.3l2.7-6.9l2.7,6.9H134.9z M92.6,29.5c-0.8-0.4-1.8-1.2-3.2-2.2l0,0h0c0,0,0,0,0,0
	c0,0,0,0-0.1,0c0,0,0,0,0,0l-10.5-8.1l10.6-7.9c1-0.8,2.1-1.2,3.2-1.2l0,0V9.7H88V10h0.1c0.7,0,0.8,0.1,0.8,0.2
	c0,0.1-0.1,0.3-0.3,0.4l-12.1,9.2v-7.8c0-0.9,0.1-1.5,0.4-1.7C77,10,77.4,9.9,78.1,10l0.1,0V9.7h-6V10l0.1,0c0.8,0,1.2,0.1,1.4,0.3
	c0.2,0.3,0.3,0.9,0.3,1.8v16c0,0.9-0.1,1.5-0.3,1.7c-0.2,0.3-0.6,0.3-1.4,0.3h-0.3c-0.7,0-1.3-0.4-1.6-1.2c-0.5-1-0.6-1.3-0.6-1.3
	L62.4,9.4l0,0H62l-7.4,19c-0.3,0.8-0.6,1.3-0.9,1.5c-0.3,0.2-0.6,0.3-1,0.3h-0.1v0.3h3.2v-0.3h-0.1c-0.4,0-0.6-0.1-0.6-0.4
	c0-0.1,0.1-0.3,0.3-1l3.1-7.8h5.9l2.9,7.3l0,0h0c0,0,0,0,0,0.1c0,0.1,0.1,0.2,0.1,0.2c0.2,0.5,0.3,0.9,0.3,1.1
	c0,0.3-0.2,0.5-0.6,0.5h-0.1v0.3h11v-0.3l-0.1,0c-0.5,0-0.8,0-1-0.1c-0.2-0.1-0.4-0.2-0.5-0.4c-0.1-0.2-0.2-0.7-0.2-1.6v-7.6
	l11.5,8.8c0.7,0.5,0.7,0.7,0.7,0.7c0,0,0,0.2-0.9,0.2h0v0.3h7.1v-0.3h-0.1C94.1,30.1,93.3,29.9,92.6,29.5z M58.7,20.3l2.7-6.9
	l2.7,6.9H58.7z M109.7,27.6c-0.1,0.8-0.3,1.3-0.5,1.5c-0.2,0.2-0.5,0.4-0.8,0.5c-0.3,0.1-1.1,0.1-2.2,0.1h-3.6
	c-0.8,0-1.4-0.1-1.7-0.2c-0.4-0.1-0.6-0.4-0.8-0.8c-0.2-0.4-0.3-1.1-0.3-2.1v-6.3h6.4c0.5,0,0.8,0,0.9,0.1c0.2,0.1,0.3,0.3,0.3,0.5
	l0,0h0.3V19h-0.3l0,0c0,0.2-0.1,0.4-0.2,0.5c-0.2,0.1-0.5,0.2-1.2,0.2h-6.2v-9.2h6.7c0.7,0,1.2,0.1,1.4,0.3c0.2,0.2,0.4,0.8,0.7,1.8
	l0,0h0.3v-3h-13V10H96c0.7,0,1.1,0.1,1.2,0.4c0.1,0.3,0.2,0.8,0.2,1.6v16.7c0,0.6-0.1,1-0.3,1.2c-0.2,0.1-0.6,0.2-1.1,0.3l0,0v0.3
	H110v-2.9L109.7,27.6L109.7,27.6z M176.2,10L176.2,10c0.7,0,1.1,0.1,1.2,0.4c0.1,0.3,0.2,0.9,0.2,1.7v7.4h-11.2v-8
	c0-0.6,0.1-0.9,0.3-1.1c0.2-0.2,0.6-0.3,1.2-0.3l0,0V9.7h-5.4V10l0,0c0.6,0,1,0.2,1.2,0.4c0.1,0.2,0.2,0.8,0.2,1.8v16.6
	c0,1-0.5,1.4-1.4,1.4l-0.1,0v0.3h5.4v-0.3h-0.1c-0.5,0-0.8-0.1-1-0.2c-0.2-0.1-0.3-0.3-0.4-0.5c-0.1-0.2-0.1-0.7-0.1-1.4v-7.9h11.2
	V28c0,1-0.1,1.6-0.3,1.9c-0.2,0.2-0.5,0.3-1.1,0.3h0v0.3h5.3v-0.3h-0.1c-0.4,0-0.7-0.1-0.9-0.2c-0.2-0.1-0.3-0.3-0.4-0.5
	c-0.1-0.2-0.1-0.7-0.1-1.5V12.1c0-0.8,0-1.4,0.1-1.6c0.1-0.2,0.2-0.3,0.4-0.4c0.2-0.1,0.5-0.1,0.9-0.1h0.1V9.7h-5.3V10z"/>
</svg>
