<?xml version="1.0" standalone="no"?>
<!DOCTYPE svg PUBLIC "-//W3C//DTD SVG 20010904//EN"
 "http://www.w3.org/TR/2001/REC-SVG-20010904/DTD/svg10.dtd">
<svg version="1.0" xmlns="http://www.w3.org/2000/svg"
 width="512.000000pt" height="512.000000pt" viewBox="0 0 512.000000 512.000000"
 preserveAspectRatio="xMidYMid meet">
<metadata>
Created by potrace 1.11, written by Peter Selinger 2001-2013
</metadata>
<g transform="translate(0.000000,512.000000) scale(0.100000,-0.100000)"
fill="#000000" stroke="none">
<path d="M0 2560 l0 -2560 2560 0 2560 0 0 2560 0 2560 -2560 0 -2560 0 0
-2560z m2997 2191 c26 -6 86 -15 133 -22 452 -62 836 -258 1152 -588 226 -236
377 -525 438 -837 11 -60 25 -131 30 -157 13 -62 13 -440 1 -504 -6 -26 -15
-84 -21 -128 -66 -467 -246 -864 -561 -1231 -43 -50 -98 -107 -122 -127 l-45
-37 -387 -10 c-363 -10 -436 -16 -406 -34 18 -12 276 -45 656 -86 310 -34 409
-48 432 -65 15 -11 15 -13 -5 -24 -11 -6 -114 -18 -229 -26 -509 -36 -533 -39
-533 -64 0 -5 28 -15 63 -23 83 -18 82 -36 -5 -65 -181 -61 -620 -118 -1103
-144 -231 -12 -692 -6 -820 11 -288 38 -395 74 -395 131 0 52 164 122 365 154
55 9 104 21 109 26 6 6 6 9 0 9 -5 0 -101 3 -214 5 -431 9 -742 40 -853 84
-68 27 -35 72 88 118 41 15 75 32 75 36 0 5 -26 41 -59 80 -203 248 -345 555
-391 847 -6 41 -16 94 -21 117 -12 54 -12 405 0 452 5 20 15 72 21 116 40 279
168 630 331 906 119 203 325 439 514 589 181 144 419 280 615 353 111 41 348
100 470 117 47 6 105 15 130 20 64 11 489 12 547 1z m-1361 -4252 c55 -11 164
-24 243 -29 101 -7 151 -14 168 -25 43 -29 13 -54 -87 -75 -65 -13 -434 -9
-495 7 -91 22 -143 61 -129 98 19 48 139 58 300 24z"/>
<path d="M2225 4524 c-391 -36 -707 -178 -1021 -461 -248 -222 -412 -503 -475
-813 -41 -199 -36 -512 12 -755 21 -107 22 -110 70 -255 117 -354 366 -721
669 -986 131 -115 196 -158 276 -180 35 -10 64 -24 64 -30 0 -7 -20 -15 -45
-18 -25 -4 -45 -11 -45 -15 0 -11 55 -18 185 -26 107 -6 192 -21 213 -38 6 -5
12 -17 12 -27 0 -29 -68 -49 -223 -66 -192 -20 -229 -38 -150 -71 96 -39 214
-47 770 -46 664 1 873 17 873 66 0 14 -60 37 -97 37 -24 0 -61 26 -51 35 16
17 108 25 373 35 153 6 281 13 284 15 2 3 2 7 0 10 -5 4 -166 21 -424 45 -55
5 -118 11 -140 14 -22 3 -85 10 -140 16 -123 14 -264 36 -330 53 -63 15 -67
39 -10 49 71 12 362 27 669 34 l299 7 57 48 c148 123 302 321 403 519 175 340
217 685 136 1093 -106 533 -499 1064 -1013 1370 -277 165 -555 273 -831 322
-82 14 -299 26 -370 19z"/>
</g>
</svg>
